<svg xmlns="http://www.w3.org/2000/svg" xmlns:xlink="http://www.w3.org/1999/xlink" width="500" zoomAndPan="magnify" viewBox="0 0 375 374.999991" height="500" preserveAspectRatio="xMidYMid meet" version="1.0"><defs><g/><clipPath id="19203b3a83"><path d="M 120 147 L 139.570312 147 L 139.570312 167 L 120 167 Z M 120 147 " clip-rule="nonzero"/></clipPath><clipPath id="ba344c9741"><path d="M 135 136 L 139.570312 136 L 139.570312 147 L 135 147 Z M 135 136 " clip-rule="nonzero"/></clipPath><clipPath id="1f2330dc86"><path d="M 75.820312 112.5 L 106 112.5 L 106 142 L 75.820312 142 Z M 75.820312 112.5 " clip-rule="nonzero"/></clipPath><clipPath id="cdabd5bbe9"><path d="M 111 112.5 L 139.570312 112.5 L 139.570312 142 L 111 142 Z M 111 112.5 " clip-rule="nonzero"/></clipPath><clipPath id="551761a0e0"><path d="M 75.820312 147 L 106 147 L 106 177 L 75.820312 177 Z M 75.820312 147 " clip-rule="nonzero"/></clipPath><clipPath id="90faffc724"><path d="M 139.789062 112.5 L 188.539062 112.5 L 188.539062 166.5 L 139.789062 166.5 Z M 139.789062 112.5 " clip-rule="nonzero"/></clipPath><clipPath id="e74074f5b7"><path d="M 188.714844 112.5 L 237.464844 112.5 L 237.464844 166.5 L 188.714844 166.5 Z M 188.714844 112.5 " clip-rule="nonzero"/></clipPath></defs><g clip-path="url(#19203b3a83)"><path fill="#51ade5" d="M 132.949219 158.71875 C 134.222656 157.789062 139.089844 157.335938 139.089844 157.335938 C 139.089844 157.335938 134.3125 156.351562 133.160156 155.285156 C 132.566406 154.730469 132.0625 154.15625 131.582031 153.496094 C 130.652344 152.222656 130.195312 147.351562 130.195312 147.351562 C 130.195312 147.351562 129.214844 152.128906 128.148438 153.28125 C 127.59375 153.878906 127.015625 154.378906 126.355469 154.863281 C 125.085938 155.789062 120.21875 156.246094 120.21875 156.246094 C 120.21875 156.246094 124.996094 157.230469 126.144531 158.292969 C 126.742188 158.851562 127.242188 159.425781 127.726562 160.085938 C 128.65625 161.355469 129.109375 166.226562 129.109375 166.226562 C 129.109375 166.226562 130.09375 161.449219 131.160156 160.300781 C 131.714844 159.703125 132.289062 159.199219 132.949219 158.71875 Z M 132.949219 158.71875 " fill-opacity="1" fill-rule="evenodd"/></g><g clip-path="url(#ba344c9741)"><path fill="#51ade5" d="M 142.632812 141.914062 C 143.265625 141.363281 145.832031 140.890625 145.832031 140.890625 C 145.832031 140.890625 143.246094 140.59375 142.589844 140.082031 C 142.246094 139.8125 141.953125 139.53125 141.667969 139.203125 C 141.113281 138.570312 140.644531 136.007812 140.644531 136.007812 C 140.644531 136.007812 140.347656 138.589844 139.832031 139.25 C 139.566406 139.59375 139.285156 139.886719 138.957031 140.171875 C 138.324219 140.722656 135.761719 141.195312 135.761719 141.195312 C 135.761719 141.195312 138.34375 141.492188 139 142.003906 C 139.34375 142.273438 139.640625 142.554688 139.925781 142.882812 C 140.476562 143.511719 140.945312 146.078125 140.945312 146.078125 C 140.945312 146.078125 141.246094 143.496094 141.757812 142.835938 C 142.023438 142.492188 142.308594 142.199219 142.632812 141.914062 Z M 142.632812 141.914062 " fill-opacity="1" fill-rule="evenodd"/></g><g clip-path="url(#1f2330dc86)"><path fill="#3871c1" d="M 75.820312 112.539062 L 105.035156 112.539062 L 105.035156 141.757812 L 75.820312 141.757812 Z M 75.820312 112.539062 " fill-opacity="1" fill-rule="nonzero"/></g><g clip-path="url(#cdabd5bbe9)"><path fill="#3871c1" d="M 140.226562 112.539062 L 111.011719 112.539062 L 111.011719 141.757812 L 125.566406 141.757812 L 140.226562 125.660156 Z M 140.226562 112.539062 " fill-opacity="1" fill-rule="nonzero"/></g><path fill="#3871c1" d="M 111.011719 147.230469 L 111.011719 157.738281 L 120.578125 147.230469 Z M 111.011719 147.230469 " fill-opacity="1" fill-rule="nonzero"/><g clip-path="url(#551761a0e0)"><path fill="#3871c1" d="M 89.773438 167.863281 L 96.242188 160.765625 L 102.808594 166.746094 L 105.039062 164.300781 L 105.039062 147.230469 L 75.820312 147.230469 L 75.820312 176.449219 L 99.191406 176.449219 C 97.691406 175.078125 96.183594 173.714844 94.683594 172.34375 Z M 89.773438 167.863281 " fill-opacity="1" fill-rule="nonzero"/></g><path fill="#51ade5" d="M 87.066406 202.550781 C 86.558594 203.078125 86.601562 203.765625 87.128906 204.261719 C 87.539062 204.640625 87.949219 205.011719 88.359375 205.382812 C 88.90625 205.871094 89.617188 205.835938 90.113281 205.289062 C 90.363281 205.015625 90.585938 204.714844 90.832031 204.429688 C 93.390625 201.449219 106.171875 186.550781 108.027344 184.402344 C 108.105469 184.316406 108.296875 184.253906 108.410156 184.28125 C 109.59375 184.539062 110.71875 184.371094 111.789062 183.835938 C 112.074219 183.691406 112.242188 183.707031 112.484375 183.929688 C 116.242188 187.367188 120.011719 190.796875 123.78125 194.226562 C 123.902344 194.335938 124.019531 194.445312 124.140625 194.554688 C 124.789062 193.84375 125.402344 193.171875 126.015625 192.496094 C 116.152344 183.515625 106.3125 174.558594 96.464844 165.585938 C 95.839844 166.269531 95.230469 166.941406 94.589844 167.644531 C 94.738281 167.78125 94.875 167.898438 95.003906 168.019531 C 98.753906 171.433594 102.496094 174.847656 106.253906 178.253906 C 106.492188 178.46875 106.527344 178.628906 106.40625 178.9375 C 105.976562 180.035156 105.914062 181.164062 106.261719 182.308594 C 106.300781 182.4375 106.238281 182.660156 106.144531 182.765625 " fill-opacity="1" fill-rule="evenodd"/><g clip-path="url(#90faffc724)"><path fill="#3871c1" d="M 160.96875 165.300781 L 160.96875 166.25 L 139.789062 166.25 L 139.789062 165.300781 C 143.171875 165.300781 146.34375 164.710938 146.34375 160.378906 L 146.34375 118.523438 C 146.34375 114.042969 142.371094 113.453125 139.789062 113.453125 L 139.789062 112.503906 L 159.515625 112.503906 L 159.515625 113.453125 C 156.875 113.453125 153.996094 114.105469 153.996094 118.523438 L 153.996094 160.023438 C 153.996094 164.738281 157.585938 165.300781 160.96875 165.300781 Z M 188.703125 165.300781 L 188.703125 166.25 L 176.480469 166.25 C 165.386719 166.25 169.628906 140.800781 160.285156 140.355469 C 180.753906 140.386719 174.199219 165.300781 188.703125 165.300781 Z M 188.613281 112.503906 L 188.613281 113.453125 C 183.304688 113.453125 175.59375 122.292969 169.867188 128.667969 L 169.125 128.667969 C 174.136719 122.261719 180.515625 113.453125 170.3125 113.453125 L 170.3125 112.503906 Z M 188.613281 112.503906 " fill-opacity="1" fill-rule="nonzero"/></g><g fill="#51ade5" fill-opacity="1"><g transform="translate(139.788862, 183.549979)"><g><path d="M 7.921875 -0.828125 L 7.921875 0 L 1.484375 0 L 1.484375 -9.09375 L 7.71875 -9.09375 L 7.71875 -8.265625 L 2.4375 -8.265625 L 2.4375 -5.03125 L 7.15625 -5.03125 L 7.15625 -4.21875 L 2.4375 -4.21875 L 2.4375 -0.828125 Z M 7.921875 -0.828125 "/></g></g></g><g fill="#51ade5" fill-opacity="1"><g transform="translate(147.209203, 183.549979)"><g/></g></g><g fill="#51ade5" fill-opacity="1"><g transform="translate(149.340166, 183.549979)"><g><path d="M 9.09375 -9.09375 L 9.09375 0 L 8.296875 0 L 2.4375 -7.390625 L 2.4375 0 L 1.484375 0 L 1.484375 -9.09375 L 2.28125 -9.09375 L 8.140625 -1.71875 L 8.140625 -9.09375 Z M 9.09375 -9.09375 "/></g></g></g><g fill="#51ade5" fill-opacity="1"><g transform="translate(158.631925, 183.549979)"><g/></g></g><g fill="#51ade5" fill-opacity="1"><g transform="translate(160.762888, 183.549979)"><g><path d="M 3.25 -8.265625 L 0.046875 -8.265625 L 0.046875 -9.09375 L 7.40625 -9.09375 L 7.40625 -8.265625 L 4.21875 -8.265625 L 4.21875 0 L 3.25 0 Z M 3.25 -8.265625 "/></g></g></g><g fill="#51ade5" fill-opacity="1"><g transform="translate(166.948608, 183.549979)"><g/></g></g><g fill="#51ade5" fill-opacity="1"><g transform="translate(169.079572, 183.549979)"><g><path d="M 7.703125 0 L 5.609375 -2.921875 C 5.378906 -2.898438 5.140625 -2.890625 4.890625 -2.890625 L 2.4375 -2.890625 L 2.4375 0 L 1.484375 0 L 1.484375 -9.09375 L 4.890625 -9.09375 C 6.046875 -9.09375 6.953125 -8.816406 7.609375 -8.265625 C 8.273438 -7.710938 8.609375 -6.953125 8.609375 -5.984375 C 8.609375 -5.265625 8.425781 -4.660156 8.0625 -4.171875 C 7.707031 -3.679688 7.195312 -3.332031 6.53125 -3.125 L 8.75 0 Z M 4.859375 -3.703125 C 5.765625 -3.703125 6.453125 -3.898438 6.921875 -4.296875 C 7.398438 -4.703125 7.640625 -5.265625 7.640625 -5.984375 C 7.640625 -6.710938 7.398438 -7.273438 6.921875 -7.671875 C 6.453125 -8.066406 5.765625 -8.265625 4.859375 -8.265625 L 2.4375 -8.265625 L 2.4375 -3.703125 Z M 4.859375 -3.703125 "/></g></g></g><g fill="#51ade5" fill-opacity="1"><g transform="translate(177.201701, 183.549979)"><g/></g></g><g fill="#51ade5" fill-opacity="1"><g transform="translate(179.332665, 183.549979)"><g><path d="M 7.921875 -0.828125 L 7.921875 0 L 1.484375 0 L 1.484375 -9.09375 L 7.71875 -9.09375 L 7.71875 -8.265625 L 2.4375 -8.265625 L 2.4375 -5.03125 L 7.15625 -5.03125 L 7.15625 -4.21875 L 2.4375 -4.21875 L 2.4375 -0.828125 Z M 7.921875 -0.828125 "/></g></g></g><g fill="#51ade5" fill-opacity="1"><g transform="translate(186.753008, 183.549979)"><g/></g></g><g fill="#51ade5" fill-opacity="1"><g transform="translate(188.883972, 183.549979)"><g><path d="M 3.25 -8.265625 L 0.046875 -8.265625 L 0.046875 -9.09375 L 7.40625 -9.09375 L 7.40625 -8.265625 L 4.21875 -8.265625 L 4.21875 0 L 3.25 0 Z M 3.25 -8.265625 "/></g></g></g><g fill="#51ade5" fill-opacity="1"><g transform="translate(195.069692, 183.549979)"><g/></g></g><g fill="#51ade5" fill-opacity="1"><g transform="translate(197.200656, 183.549979)"><g><path d="M 1.484375 -9.09375 L 2.4375 -9.09375 L 2.4375 0 L 1.484375 0 Z M 1.484375 -9.09375 "/></g></g></g><g fill="#51ade5" fill-opacity="1"><g transform="translate(199.851457, 183.549979)"><g/></g></g><g fill="#51ade5" fill-opacity="1"><g transform="translate(201.982421, 183.549979)"><g><path d="M 7.921875 -0.828125 L 7.921875 0 L 1.484375 0 L 1.484375 -9.09375 L 7.71875 -9.09375 L 7.71875 -8.265625 L 2.4375 -8.265625 L 2.4375 -5.03125 L 7.15625 -5.03125 L 7.15625 -4.21875 L 2.4375 -4.21875 L 2.4375 -0.828125 Z M 7.921875 -0.828125 "/></g></g></g><g fill="#51ade5" fill-opacity="1"><g transform="translate(209.402764, 183.549979)"><g/></g></g><g fill="#51ade5" fill-opacity="1"><g transform="translate(211.533728, 183.549979)"><g><path d="M 9.09375 -9.09375 L 9.09375 0 L 8.296875 0 L 2.4375 -7.390625 L 2.4375 0 L 1.484375 0 L 1.484375 -9.09375 L 2.28125 -9.09375 L 8.140625 -1.71875 L 8.140625 -9.09375 Z M 9.09375 -9.09375 "/></g></g></g><g clip-path="url(#e74074f5b7)"><path fill="#3871c1" d="M 209.894531 165.300781 L 209.894531 166.25 L 188.714844 166.25 L 188.714844 165.300781 C 192.097656 165.300781 195.269531 164.710938 195.269531 160.378906 L 195.269531 118.523438 C 195.269531 114.042969 191.296875 113.453125 188.714844 113.453125 L 188.714844 112.503906 L 208.441406 112.503906 L 208.441406 113.453125 C 205.800781 113.453125 202.921875 114.105469 202.921875 118.523438 L 202.921875 160.023438 C 202.921875 164.738281 206.511719 165.300781 209.894531 165.300781 Z M 237.628906 165.300781 L 237.628906 166.25 L 225.40625 166.25 C 214.3125 166.25 218.554688 140.800781 209.210938 140.355469 C 229.679688 140.386719 223.125 165.300781 237.628906 165.300781 Z M 237.539062 112.503906 L 237.539062 113.453125 C 232.230469 113.453125 224.515625 122.292969 218.792969 128.667969 L 218.050781 128.667969 C 223.0625 122.261719 229.441406 113.453125 219.238281 113.453125 L 219.238281 112.503906 Z M 237.539062 112.503906 " fill-opacity="1" fill-rule="nonzero"/></g></svg>