<svg xmlns="http://www.w3.org/2000/svg" xmlns:xlink="http://www.w3.org/1999/xlink" width="500" zoomAndPan="magnify" viewBox="0 0 375 374.999991" height="500" preserveAspectRatio="xMidYMid meet" version="1.0"><defs><g/><clipPath id="95f601ddef"><path d="M 114.566406 51.941406 L 261.507812 51.941406 L 261.507812 221.878906 L 114.566406 221.878906 Z M 114.566406 51.941406 " clip-rule="nonzero"/></clipPath><clipPath id="e77ba4e124"><path d="M 131.386719 87.296875 L 176.386719 87.296875 L 176.386719 136.796875 L 131.386719 136.796875 Z M 131.386719 87.296875 " clip-rule="nonzero"/></clipPath><clipPath id="dc3d5d35c4"><path d="M 176.542969 136.917969 L 223 136.917969 L 223 187.917969 L 176.542969 187.917969 Z M 176.542969 136.917969 " clip-rule="nonzero"/></clipPath><clipPath id="50994a155f"><path d="M 183.355469 87.296875 L 241.855469 87.296875 L 241.855469 119.546875 L 183.355469 119.546875 Z M 183.355469 87.296875 " clip-rule="nonzero"/></clipPath></defs><g clip-path="url(#95f601ddef)"><path fill="#ffffff" d="M 250.574219 129.726562 C 247.195312 147.277344 240.769531 162.898438 231.464844 176.152344 C 220.789062 191.359375 206.152344 203.613281 187.917969 212.621094 C 169.863281 203.617188 155.351562 191.375 144.742188 176.179688 C 135.492188 162.914062 129.082031 147.289062 125.691406 129.722656 C 122.625 113.84375 122.648438 99.320312 123.203125 89.9375 C 123.386719 86.832031 123.640625 84.09375 123.898438 81.792969 C 128.742188 80.949219 135.214844 79.691406 142.441406 77.9375 C 155.160156 74.855469 172.753906 69.59375 188.183594 61.472656 C 203.605469 69.601562 221.164062 74.859375 233.851562 77.949219 C 241.0625 79.703125 247.460938 80.953125 252.273438 81.796875 C 252.539062 84.09375 252.796875 86.835938 252.992188 89.972656 C 253.578125 99.347656 253.632812 113.855469 250.574219 129.726562 Z M 261.328125 89.453125 C 260.898438 82.597656 260.167969 77.402344 259.6875 74.542969 C 255.496094 73.921875 246.648438 72.46875 235.824219 69.835938 C 222.515625 66.597656 203.675781 60.898438 188.183594 51.941406 C 172.703125 60.890625 153.820312 66.585938 140.472656 69.824219 C 129.675781 72.441406 120.679688 73.917969 116.453125 74.539062 C 115.992188 77.378906 115.277344 82.53125 114.871094 89.441406 C 114.28125 99.304688 114.265625 114.574219 117.496094 131.304688 C 121.105469 150.023438 127.972656 166.730469 137.898438 180.957031 C 150.039062 198.355469 166.859375 212.113281 187.902344 221.878906 C 209.132812 212.113281 226.082031 198.347656 238.300781 180.945312 C 248.285156 166.726562 255.171875 150.023438 258.773438 131.304688 C 261.996094 114.574219 261.941406 99.3125 261.328125 89.453125 " fill-opacity="1" fill-rule="nonzero"/></g><g clip-path="url(#e77ba4e124)"><path fill="#ffffff" d="M 150.9375 136.039062 L 150.9375 136.914062 L 131.386719 136.914062 L 131.386719 136.039062 C 134.507812 136.039062 137.4375 135.488281 137.4375 131.492188 L 137.4375 92.855469 C 137.4375 88.722656 133.769531 88.175781 131.386719 88.175781 L 131.386719 87.296875 L 149.597656 87.296875 L 149.597656 88.175781 C 147.160156 88.175781 144.503906 88.777344 144.503906 92.855469 L 144.503906 131.164062 C 144.503906 135.515625 147.816406 136.039062 150.9375 136.039062 Z M 176.539062 136.039062 L 176.539062 136.914062 L 165.257812 136.914062 C 155.019531 136.914062 158.933594 113.421875 150.308594 113.007812 C 169.203125 113.035156 163.152344 136.039062 176.539062 136.039062 Z M 176.457031 87.296875 L 176.457031 88.175781 C 171.558594 88.175781 164.4375 96.335938 159.152344 102.222656 L 158.46875 102.222656 C 163.097656 96.308594 168.984375 88.175781 159.5625 88.175781 L 159.5625 87.296875 Z M 176.457031 87.296875 " fill-opacity="1" fill-rule="nonzero"/></g><g clip-path="url(#dc3d5d35c4)"><path fill="#ffffff" d="M 196.59375 186.910156 L 196.59375 187.808594 L 176.542969 187.808594 L 176.542969 186.910156 C 179.746094 186.910156 182.75 186.351562 182.75 182.25 L 182.75 142.621094 C 182.75 138.378906 178.984375 137.820312 176.542969 137.820312 L 176.542969 136.921875 L 195.21875 136.921875 L 195.21875 137.820312 C 192.71875 137.820312 189.996094 138.4375 189.996094 142.621094 L 189.996094 181.914062 C 189.996094 186.378906 193.394531 186.910156 196.59375 186.910156 Z M 222.855469 186.910156 L 222.855469 187.808594 L 211.285156 187.808594 C 200.78125 187.808594 204.796875 163.714844 195.949219 163.292969 C 215.328125 163.320312 209.121094 186.910156 222.855469 186.910156 Z M 222.769531 136.921875 L 222.769531 137.820312 C 217.742188 137.820312 210.441406 146.1875 205.019531 152.226562 L 204.320312 152.226562 C 209.066406 146.160156 215.101562 137.820312 205.441406 137.820312 L 205.441406 136.921875 Z M 222.769531 136.921875 " fill-opacity="1" fill-rule="nonzero"/></g><path fill="#ffffff" d="M 212.660156 98.226562 C 209.699219 98.226562 207.292969 100.636719 207.292969 103.597656 C 207.292969 106.558594 209.699219 108.972656 212.660156 108.972656 C 215.625 108.972656 218.035156 106.558594 218.035156 103.597656 C 218.035156 100.636719 215.625 98.226562 212.660156 98.226562 " fill-opacity="1" fill-rule="nonzero"/><g clip-path="url(#50994a155f)"><path fill="#ffffff" d="M 238.289062 103.9375 C 237.910156 104.363281 230.695312 112.386719 220.863281 115.703125 C 224.660156 113.082031 227.152344 108.703125 227.152344 103.75 C 227.152344 98.390625 224.234375 93.703125 219.90625 91.1875 C 230.222656 94.285156 237.898438 102.820312 238.289062 103.261719 L 238.589844 103.597656 Z M 187.035156 103.9375 L 186.734375 103.597656 L 187.03125 103.261719 C 187.421875 102.824219 195.074219 94.386719 205.273438 91.242188 C 200.996094 93.773438 198.117188 98.429688 198.117188 103.75 C 198.117188 108.671875 200.582031 113.03125 204.339844 115.65625 C 194.585938 112.3125 187.410156 104.359375 187.035156 103.9375 Z M 212.636719 115.488281 C 206.164062 115.488281 200.898438 110.222656 200.898438 103.75 C 200.898438 97.277344 206.164062 92.011719 212.636719 92.011719 C 219.109375 92.011719 224.375 97.277344 224.375 103.75 C 224.375 110.222656 219.109375 115.488281 212.636719 115.488281 Z M 241.484375 102.675781 L 240.367188 101.414062 C 239.855469 100.839844 227.679688 87.296875 212.664062 87.296875 C 206.378906 87.296875 199.875 89.609375 193.328125 94.164062 C 188.480469 97.535156 185.304688 101.023438 184.957031 101.414062 L 183.839844 102.675781 C 183.371094 103.203125 183.371094 103.992188 183.839844 104.519531 L 184.957031 105.78125 C 185.300781 106.167969 188.4375 109.636719 193.320312 113.035156 C 199.867188 117.589844 206.375 119.898438 212.664062 119.898438 C 227.679688 119.898438 239.855469 106.355469 240.367188 105.78125 L 241.484375 104.519531 C 241.953125 103.996094 241.953125 103.203125 241.484375 102.675781 " fill-opacity="1" fill-rule="nonzero"/></g><g fill="#ffffff" fill-opacity="1"><g transform="translate(134.073833, 244.460302)"><g><path d="M 5.984375 0.234375 C 4.921875 0.234375 3.894531 0.09375 2.90625 -0.1875 C 1.925781 -0.476562 1.132812 -0.851562 0.53125 -1.3125 L 1.59375 -3.65625 C 2.164062 -3.226562 2.84375 -2.882812 3.625 -2.625 C 4.414062 -2.375 5.207031 -2.25 6 -2.25 C 6.875 -2.25 7.519531 -2.378906 7.9375 -2.640625 C 8.363281 -2.898438 8.578125 -3.25 8.578125 -3.6875 C 8.578125 -4.007812 8.453125 -4.273438 8.203125 -4.484375 C 7.953125 -4.691406 7.632812 -4.859375 7.25 -4.984375 C 6.863281 -5.109375 6.335938 -5.25 5.671875 -5.40625 C 4.648438 -5.644531 3.816406 -5.882812 3.171875 -6.125 C 2.523438 -6.375 1.96875 -6.765625 1.5 -7.296875 C 1.03125 -7.835938 0.796875 -8.550781 0.796875 -9.4375 C 0.796875 -10.21875 1.003906 -10.921875 1.421875 -11.546875 C 1.847656 -12.179688 2.484375 -12.679688 3.328125 -13.046875 C 4.179688 -13.421875 5.21875 -13.609375 6.4375 -13.609375 C 7.289062 -13.609375 8.125 -13.503906 8.9375 -13.296875 C 9.757812 -13.097656 10.472656 -12.804688 11.078125 -12.421875 L 10.125 -10.078125 C 8.894531 -10.773438 7.660156 -11.125 6.421875 -11.125 C 5.554688 -11.125 4.914062 -10.984375 4.5 -10.703125 C 4.082031 -10.421875 3.875 -10.050781 3.875 -9.59375 C 3.875 -9.132812 4.113281 -8.789062 4.59375 -8.5625 C 5.070312 -8.34375 5.800781 -8.125 6.78125 -7.90625 C 7.800781 -7.664062 8.632812 -7.425781 9.28125 -7.1875 C 9.9375 -6.945312 10.492188 -6.5625 10.953125 -6.03125 C 11.421875 -5.507812 11.65625 -4.804688 11.65625 -3.921875 C 11.65625 -3.148438 11.441406 -2.445312 11.015625 -1.8125 C 10.585938 -1.1875 9.945312 -0.6875 9.09375 -0.3125 C 8.238281 0.0507812 7.203125 0.234375 5.984375 0.234375 Z M 5.984375 0.234375 "/></g></g></g><g fill="#ffffff" fill-opacity="1"><g transform="translate(149.240974, 244.460302)"><g><path d="M 11.9375 -2.484375 L 11.9375 0 L 1.59375 0 L 1.59375 -13.375 L 11.6875 -13.375 L 11.6875 -10.890625 L 4.65625 -10.890625 L 4.65625 -7.984375 L 10.875 -7.984375 L 10.875 -5.578125 L 4.65625 -5.578125 L 4.65625 -2.484375 Z M 11.9375 -2.484375 "/></g></g></g><g fill="#ffffff" fill-opacity="1"><g transform="translate(165.038468, 244.460302)"><g><path d="M 7.984375 0.234375 C 6.617188 0.234375 5.382812 -0.0625 4.28125 -0.65625 C 3.1875 -1.25 2.320312 -2.070312 1.6875 -3.125 C 1.0625 -4.175781 0.75 -5.363281 0.75 -6.6875 C 0.75 -8.007812 1.0625 -9.195312 1.6875 -10.25 C 2.320312 -11.300781 3.1875 -12.125 4.28125 -12.71875 C 5.382812 -13.3125 6.625 -13.609375 8 -13.609375 C 9.164062 -13.609375 10.21875 -13.40625 11.15625 -13 C 12.09375 -12.59375 12.878906 -12.003906 13.515625 -11.234375 L 11.515625 -9.40625 C 10.617188 -10.445312 9.5 -10.96875 8.15625 -10.96875 C 7.332031 -10.96875 6.59375 -10.785156 5.9375 -10.421875 C 5.289062 -10.054688 4.785156 -9.550781 4.421875 -8.90625 C 4.054688 -8.257812 3.875 -7.519531 3.875 -6.6875 C 3.875 -5.863281 4.054688 -5.125 4.421875 -4.46875 C 4.785156 -3.820312 5.289062 -3.316406 5.9375 -2.953125 C 6.59375 -2.585938 7.332031 -2.40625 8.15625 -2.40625 C 9.5 -2.40625 10.617188 -2.9375 11.515625 -4 L 13.515625 -2.15625 C 12.878906 -1.382812 12.085938 -0.789062 11.140625 -0.375 C 10.203125 0.03125 9.148438 0.234375 7.984375 0.234375 Z M 7.984375 0.234375 "/></g></g></g><g fill="#ffffff" fill-opacity="1"><g transform="translate(182.020266, 244.460302)"><g><path d="M 7.53125 0.234375 C 5.613281 0.234375 4.125 -0.289062 3.0625 -1.34375 C 2 -2.40625 1.46875 -3.921875 1.46875 -5.890625 L 1.46875 -13.375 L 4.5625 -13.375 L 4.5625 -6 C 4.5625 -3.601562 5.554688 -2.40625 7.546875 -2.40625 C 8.515625 -2.40625 9.253906 -2.691406 9.765625 -3.265625 C 10.273438 -3.847656 10.53125 -4.757812 10.53125 -6 L 10.53125 -13.375 L 13.59375 -13.375 L 13.59375 -5.890625 C 13.59375 -3.921875 13.054688 -2.40625 11.984375 -1.34375 C 10.921875 -0.289062 9.4375 0.234375 7.53125 0.234375 Z M 7.53125 0.234375 "/></g></g></g><g fill="#ffffff" fill-opacity="1"><g transform="translate(200.052651, 244.460302)"><g><path d="M 10.109375 0 L 7.53125 -3.71875 L 4.6875 -3.71875 L 4.6875 0 L 1.59375 0 L 1.59375 -13.375 L 7.375 -13.375 C 8.5625 -13.375 9.585938 -13.175781 10.453125 -12.78125 C 11.328125 -12.382812 12 -11.820312 12.46875 -11.09375 C 12.945312 -10.375 13.1875 -9.515625 13.1875 -8.515625 C 13.1875 -7.523438 12.945312 -6.671875 12.46875 -5.953125 C 11.988281 -5.234375 11.3125 -4.679688 10.4375 -4.296875 L 13.4375 0 Z M 10.046875 -8.515625 C 10.046875 -9.273438 9.800781 -9.851562 9.3125 -10.25 C 8.832031 -10.65625 8.128906 -10.859375 7.203125 -10.859375 L 4.6875 -10.859375 L 4.6875 -6.1875 L 7.203125 -6.1875 C 8.128906 -6.1875 8.832031 -6.390625 9.3125 -6.796875 C 9.800781 -7.210938 10.046875 -7.785156 10.046875 -8.515625 Z M 10.046875 -8.515625 "/></g></g></g><g fill="#ffffff" fill-opacity="1"><g transform="translate(217.072647, 244.460302)"><g><path d="M 1.59375 -13.375 L 4.6875 -13.375 L 4.6875 0 L 1.59375 0 Z M 1.59375 -13.375 "/></g></g></g><g fill="#ffffff" fill-opacity="1"><g transform="translate(226.318282, 244.460302)"><g><path d="M 4.359375 -10.859375 L 0.078125 -10.859375 L 0.078125 -13.375 L 11.734375 -13.375 L 11.734375 -10.859375 L 7.453125 -10.859375 L 7.453125 0 L 4.359375 0 Z M 4.359375 -10.859375 "/></g></g></g><g fill="#ffffff" fill-opacity="1"><g transform="translate(241.10339, 244.460302)"><g><path d="M 8 -4.734375 L 8 0 L 4.90625 0 L 4.90625 -4.78125 L -0.265625 -13.375 L 3.015625 -13.375 L 6.59375 -7.4375 L 10.171875 -13.375 L 13.203125 -13.375 Z M 8 -4.734375 "/></g></g></g><g fill="#ffffff" fill-opacity="1"><g transform="translate(134.577844, 256.794305)"><g><path d="M 2.265625 -1.5 L 3.28125 -5.390625 L 4.4375 -5.390625 L 2.796875 0 L 1.75 0 L 0.109375 -5.390625 L 1.265625 -5.390625 Z M 2.265625 -1.5 "/></g></g></g><g fill="#ffffff" fill-opacity="1"><g transform="translate(143.315397, 256.794305)"><g><path d="M 4.25 -2.296875 C 4.25 -1.953125 4.203125 -1.632812 4.109375 -1.34375 C 4.015625 -1.050781 3.878906 -0.800781 3.703125 -0.59375 C 3.535156 -0.382812 3.328125 -0.21875 3.078125 -0.09375 C 2.828125 0.0195312 2.550781 0.078125 2.25 0.078125 C 1.9375 0.078125 1.65625 0.0195312 1.40625 -0.09375 C 1.164062 -0.21875 0.960938 -0.382812 0.796875 -0.59375 C 0.640625 -0.800781 0.515625 -1.050781 0.421875 -1.34375 C 0.335938 -1.632812 0.296875 -1.953125 0.296875 -2.296875 L 0.296875 -3.078125 C 0.296875 -3.421875 0.335938 -3.738281 0.421875 -4.03125 C 0.515625 -4.320312 0.640625 -4.570312 0.796875 -4.78125 C 0.960938 -5 1.164062 -5.164062 1.40625 -5.28125 C 1.644531 -5.40625 1.921875 -5.46875 2.234375 -5.46875 C 2.546875 -5.46875 2.828125 -5.40625 3.078125 -5.28125 C 3.328125 -5.164062 3.535156 -5 3.703125 -4.78125 C 3.878906 -4.570312 4.015625 -4.320312 4.109375 -4.03125 C 4.203125 -3.738281 4.25 -3.421875 4.25 -3.078125 Z M 3.1875 -3.09375 C 3.1875 -3.3125 3.164062 -3.507812 3.125 -3.6875 C 3.09375 -3.875 3.039062 -4.035156 2.96875 -4.171875 C 2.894531 -4.304688 2.796875 -4.410156 2.671875 -4.484375 C 2.554688 -4.554688 2.410156 -4.59375 2.234375 -4.59375 C 2.066406 -4.59375 1.925781 -4.554688 1.8125 -4.484375 C 1.695312 -4.410156 1.601562 -4.304688 1.53125 -4.171875 C 1.46875 -4.035156 1.421875 -3.875 1.390625 -3.6875 C 1.359375 -3.507812 1.34375 -3.3125 1.34375 -3.09375 L 1.34375 -2.296875 C 1.34375 -2.078125 1.359375 -1.875 1.390625 -1.6875 C 1.421875 -1.507812 1.46875 -1.351562 1.53125 -1.21875 C 1.601562 -1.082031 1.695312 -0.972656 1.8125 -0.890625 C 1.925781 -0.816406 2.070312 -0.78125 2.25 -0.78125 C 2.414062 -0.78125 2.554688 -0.816406 2.671875 -0.890625 C 2.796875 -0.972656 2.894531 -1.078125 2.96875 -1.203125 C 3.039062 -1.335938 3.09375 -1.5 3.125 -1.6875 C 3.164062 -1.875 3.1875 -2.078125 3.1875 -2.296875 Z M 3.1875 -3.09375 "/></g></g></g><g fill="#ffffff" fill-opacity="1"><g transform="translate(152.052949, 256.794305)"><g><path d="M 4.4375 -4.546875 L 2.78125 -4.546875 L 2.78125 0 L 1.734375 0 L 1.734375 -4.546875 L 0.09375 -4.546875 L 0.09375 -5.390625 L 4.4375 -5.390625 Z M 4.4375 -4.546875 "/></g></g></g><g fill="#ffffff" fill-opacity="1"><g transform="translate(160.790502, 256.794305)"><g><path d="M 2.3125 -2.015625 L 1.53125 -2.015625 L 1.53125 0 L 0.484375 0 L 0.484375 -5.390625 L 2.296875 -5.390625 C 2.585938 -5.390625 2.851562 -5.351562 3.09375 -5.28125 C 3.34375 -5.207031 3.550781 -5.101562 3.71875 -4.96875 C 3.894531 -4.832031 4.023438 -4.660156 4.109375 -4.453125 C 4.203125 -4.253906 4.25 -4.023438 4.25 -3.765625 C 4.25 -3.566406 4.226562 -3.390625 4.1875 -3.234375 C 4.144531 -3.085938 4.078125 -2.953125 3.984375 -2.828125 C 3.898438 -2.703125 3.796875 -2.59375 3.671875 -2.5 C 3.554688 -2.414062 3.425781 -2.335938 3.28125 -2.265625 L 4.4375 -0.046875 L 4.4375 0 L 3.328125 0 Z M 1.53125 -2.859375 L 2.296875 -2.859375 C 2.585938 -2.859375 2.8125 -2.929688 2.96875 -3.078125 C 3.132812 -3.222656 3.21875 -3.425781 3.21875 -3.6875 C 3.21875 -3.957031 3.140625 -4.164062 2.984375 -4.3125 C 2.828125 -4.46875 2.597656 -4.546875 2.296875 -4.546875 L 1.53125 -4.546875 Z M 1.53125 -2.859375 "/></g></g></g><g fill="#ffffff" fill-opacity="1"><g transform="translate(169.528053, 256.794305)"><g><path d="M 3.796875 -2.359375 L 1.59375 -2.359375 L 1.59375 -0.84375 L 4.171875 -0.84375 L 4.171875 0 L 0.546875 0 L 0.546875 -5.390625 L 4.15625 -5.390625 L 4.15625 -4.546875 L 1.59375 -4.546875 L 1.59375 -3.1875 L 3.796875 -3.1875 Z M 3.796875 -2.359375 "/></g></g></g><g fill="#ffffff" fill-opacity="1"><g transform="translate(178.265605, 256.794305)"><g><path d="M 3.28125 -1.40625 C 3.28125 -1.5 3.265625 -1.585938 3.234375 -1.671875 C 3.203125 -1.753906 3.144531 -1.832031 3.0625 -1.90625 C 2.976562 -1.976562 2.867188 -2.046875 2.734375 -2.109375 C 2.609375 -2.171875 2.453125 -2.226562 2.265625 -2.28125 C 2.023438 -2.34375 1.796875 -2.421875 1.578125 -2.515625 C 1.367188 -2.617188 1.179688 -2.738281 1.015625 -2.875 C 0.859375 -3.007812 0.726562 -3.164062 0.625 -3.34375 C 0.53125 -3.519531 0.484375 -3.726562 0.484375 -3.96875 C 0.484375 -4.1875 0.53125 -4.390625 0.625 -4.578125 C 0.726562 -4.765625 0.863281 -4.921875 1.03125 -5.046875 C 1.207031 -5.179688 1.410156 -5.285156 1.640625 -5.359375 C 1.867188 -5.429688 2.117188 -5.46875 2.390625 -5.46875 C 2.671875 -5.46875 2.925781 -5.425781 3.15625 -5.34375 C 3.394531 -5.257812 3.597656 -5.144531 3.765625 -5 C 3.929688 -4.851562 4.0625 -4.675781 4.15625 -4.46875 C 4.25 -4.269531 4.296875 -4.050781 4.296875 -3.8125 L 3.28125 -3.8125 C 3.28125 -3.925781 3.257812 -4.035156 3.21875 -4.140625 C 3.175781 -4.242188 3.117188 -4.332031 3.046875 -4.40625 C 2.972656 -4.476562 2.878906 -4.53125 2.765625 -4.5625 C 2.648438 -4.601562 2.519531 -4.625 2.375 -4.625 C 2.238281 -4.625 2.113281 -4.609375 2 -4.578125 C 1.894531 -4.546875 1.804688 -4.5 1.734375 -4.4375 C 1.660156 -4.375 1.601562 -4.300781 1.5625 -4.21875 C 1.53125 -4.144531 1.515625 -4.054688 1.515625 -3.953125 C 1.515625 -3.859375 1.535156 -3.769531 1.578125 -3.6875 C 1.628906 -3.601562 1.703125 -3.53125 1.796875 -3.46875 C 1.898438 -3.40625 2.019531 -3.34375 2.15625 -3.28125 C 2.289062 -3.226562 2.445312 -3.179688 2.625 -3.140625 C 2.863281 -3.066406 3.085938 -2.976562 3.296875 -2.875 C 3.503906 -2.769531 3.679688 -2.644531 3.828125 -2.5 C 3.984375 -2.363281 4.101562 -2.203125 4.1875 -2.015625 C 4.269531 -1.835938 4.3125 -1.632812 4.3125 -1.40625 C 4.3125 -1.175781 4.257812 -0.96875 4.15625 -0.78125 C 4.0625 -0.59375 3.929688 -0.4375 3.765625 -0.3125 C 3.597656 -0.1875 3.398438 -0.09375 3.171875 -0.03125 C 2.941406 0.03125 2.6875 0.0625 2.40625 0.0625 C 2.238281 0.0625 2.070312 0.046875 1.90625 0.015625 C 1.738281 -0.00390625 1.578125 -0.046875 1.421875 -0.109375 C 1.265625 -0.179688 1.117188 -0.265625 0.984375 -0.359375 C 0.847656 -0.453125 0.734375 -0.5625 0.640625 -0.6875 C 0.546875 -0.820312 0.46875 -0.96875 0.40625 -1.125 C 0.351562 -1.289062 0.328125 -1.472656 0.328125 -1.671875 L 1.34375 -1.671875 C 1.351562 -1.503906 1.382812 -1.363281 1.4375 -1.25 C 1.488281 -1.132812 1.5625 -1.039062 1.65625 -0.96875 C 1.75 -0.894531 1.859375 -0.835938 1.984375 -0.796875 C 2.109375 -0.765625 2.25 -0.75 2.40625 -0.75 C 2.550781 -0.75 2.675781 -0.765625 2.78125 -0.796875 C 2.882812 -0.828125 2.972656 -0.867188 3.046875 -0.921875 C 3.117188 -0.984375 3.175781 -1.054688 3.21875 -1.140625 C 3.257812 -1.222656 3.28125 -1.3125 3.28125 -1.40625 Z M 3.28125 -1.40625 "/></g></g></g><g fill="#ffffff" fill-opacity="1"><g transform="translate(187.003159, 256.794305)"><g><path d="M 3.796875 -2.359375 L 1.59375 -2.359375 L 1.59375 -0.84375 L 4.171875 -0.84375 L 4.171875 0 L 0.546875 0 L 0.546875 -5.390625 L 4.15625 -5.390625 L 4.15625 -4.546875 L 1.59375 -4.546875 L 1.59375 -3.1875 L 3.796875 -3.1875 Z M 2.640625 -6.71875 L 3.765625 -6.71875 L 2.75 -5.6875 L 1.9375 -5.6875 Z M 2.640625 -6.71875 "/></g></g></g><g fill="#ffffff" fill-opacity="1"><g transform="translate(195.740713, 256.794305)"><g><path d="M 4.21875 -1.6875 C 4.207031 -1.414062 4.148438 -1.171875 4.046875 -0.953125 C 3.953125 -0.734375 3.816406 -0.546875 3.640625 -0.390625 C 3.472656 -0.242188 3.273438 -0.128906 3.046875 -0.046875 C 2.816406 0.0351562 2.5625 0.078125 2.28125 0.078125 C 1.957031 0.078125 1.671875 0.0195312 1.421875 -0.09375 C 1.179688 -0.21875 0.976562 -0.382812 0.8125 -0.59375 C 0.644531 -0.800781 0.515625 -1.050781 0.421875 -1.34375 C 0.335938 -1.644531 0.296875 -1.972656 0.296875 -2.328125 L 0.296875 -3.046875 C 0.296875 -3.410156 0.34375 -3.738281 0.4375 -4.03125 C 0.53125 -4.332031 0.660156 -4.585938 0.828125 -4.796875 C 1.003906 -5.003906 1.210938 -5.164062 1.453125 -5.28125 C 1.703125 -5.40625 1.976562 -5.46875 2.28125 -5.46875 C 2.582031 -5.46875 2.847656 -5.425781 3.078125 -5.34375 C 3.304688 -5.257812 3.5 -5.140625 3.65625 -4.984375 C 3.820312 -4.828125 3.953125 -4.632812 4.046875 -4.40625 C 4.140625 -4.1875 4.203125 -3.9375 4.234375 -3.65625 L 3.1875 -3.65625 C 3.175781 -3.8125 3.148438 -3.945312 3.109375 -4.0625 C 3.078125 -4.1875 3.023438 -4.289062 2.953125 -4.375 C 2.878906 -4.457031 2.785156 -4.519531 2.671875 -4.5625 C 2.566406 -4.601562 2.4375 -4.625 2.28125 -4.625 C 2.125 -4.625 1.984375 -4.585938 1.859375 -4.515625 C 1.742188 -4.441406 1.644531 -4.335938 1.5625 -4.203125 C 1.488281 -4.078125 1.429688 -3.914062 1.390625 -3.71875 C 1.359375 -3.53125 1.34375 -3.3125 1.34375 -3.0625 L 1.34375 -2.328125 C 1.34375 -1.796875 1.414062 -1.398438 1.5625 -1.140625 C 1.71875 -0.890625 1.957031 -0.765625 2.28125 -0.765625 C 2.550781 -0.765625 2.765625 -0.835938 2.921875 -0.984375 C 3.078125 -1.128906 3.164062 -1.363281 3.1875 -1.6875 Z M 4.21875 -1.6875 "/></g></g></g><g fill="#ffffff" fill-opacity="1"><g transform="translate(204.478266, 256.794305)"><g><path d="M 4.078125 -5.390625 L 4.078125 -1.8125 C 4.078125 -1.507812 4.035156 -1.238281 3.953125 -1 C 3.867188 -0.769531 3.75 -0.570312 3.59375 -0.40625 C 3.4375 -0.25 3.242188 -0.128906 3.015625 -0.046875 C 2.796875 0.0351562 2.539062 0.078125 2.25 0.078125 C 1.976562 0.078125 1.734375 0.0351562 1.515625 -0.046875 C 1.296875 -0.128906 1.109375 -0.25 0.953125 -0.40625 C 0.796875 -0.570312 0.675781 -0.769531 0.59375 -1 C 0.507812 -1.238281 0.46875 -1.507812 0.46875 -1.8125 L 0.46875 -5.390625 L 1.515625 -5.390625 L 1.515625 -1.8125 C 1.515625 -1.46875 1.578125 -1.207031 1.703125 -1.03125 C 1.828125 -0.851562 2.007812 -0.765625 2.25 -0.765625 C 2.5 -0.765625 2.691406 -0.851562 2.828125 -1.03125 C 2.960938 -1.207031 3.03125 -1.46875 3.03125 -1.8125 L 3.046875 -5.390625 Z M 4.078125 -5.390625 "/></g></g></g><g fill="#ffffff" fill-opacity="1"><g transform="translate(213.215816, 256.794305)"><g><path d="M 2.3125 -2.015625 L 1.53125 -2.015625 L 1.53125 0 L 0.484375 0 L 0.484375 -5.390625 L 2.296875 -5.390625 C 2.585938 -5.390625 2.851562 -5.351562 3.09375 -5.28125 C 3.34375 -5.207031 3.550781 -5.101562 3.71875 -4.96875 C 3.894531 -4.832031 4.023438 -4.660156 4.109375 -4.453125 C 4.203125 -4.253906 4.25 -4.023438 4.25 -3.765625 C 4.25 -3.566406 4.226562 -3.390625 4.1875 -3.234375 C 4.144531 -3.085938 4.078125 -2.953125 3.984375 -2.828125 C 3.898438 -2.703125 3.796875 -2.59375 3.671875 -2.5 C 3.554688 -2.414062 3.425781 -2.335938 3.28125 -2.265625 L 4.4375 -0.046875 L 4.4375 0 L 3.328125 0 Z M 1.53125 -2.859375 L 2.296875 -2.859375 C 2.585938 -2.859375 2.8125 -2.929688 2.96875 -3.078125 C 3.132812 -3.222656 3.21875 -3.425781 3.21875 -3.6875 C 3.21875 -3.957031 3.140625 -4.164062 2.984375 -4.3125 C 2.828125 -4.46875 2.597656 -4.546875 2.296875 -4.546875 L 1.53125 -4.546875 Z M 1.53125 -2.859375 "/></g></g></g><g fill="#ffffff" fill-opacity="1"><g transform="translate(221.953365, 256.794305)"><g><path d="M 0.71875 -5.390625 L 3.828125 -5.390625 L 3.828125 -4.546875 L 2.78125 -4.546875 L 2.78125 -0.84375 L 3.828125 -0.84375 L 3.828125 0 L 0.71875 0 L 0.71875 -0.84375 L 1.734375 -0.84375 L 1.734375 -4.546875 L 0.71875 -4.546875 Z M 0.71875 -5.390625 "/></g></g></g><g fill="#ffffff" fill-opacity="1"><g transform="translate(230.690915, 256.794305)"><g><path d="M 4.4375 -4.546875 L 2.78125 -4.546875 L 2.78125 0 L 1.734375 0 L 1.734375 -4.546875 L 0.09375 -4.546875 L 0.09375 -5.390625 L 4.4375 -5.390625 Z M 4.4375 -4.546875 "/></g></g></g><g fill="#ffffff" fill-opacity="1"><g transform="translate(239.428465, 256.794305)"><g><path d="M 3.796875 -2.359375 L 1.59375 -2.359375 L 1.59375 -0.84375 L 4.171875 -0.84375 L 4.171875 0 L 0.546875 0 L 0.546875 -5.390625 L 4.15625 -5.390625 L 4.15625 -4.546875 L 1.59375 -4.546875 L 1.59375 -3.1875 L 3.796875 -3.1875 Z M 2.640625 -6.71875 L 3.765625 -6.71875 L 2.75 -5.6875 L 1.9375 -5.6875 Z M 2.640625 -6.71875 "/></g></g></g><g fill="#ffffff" fill-opacity="1"><g transform="translate(133.481026, 270.511231)"><g><path d="M 4.03125 0 L 3 0 L 1.5 -3.46875 L 1.5 0 L 0.453125 0 L 0.453125 -5.390625 L 1.5 -5.390625 L 2.984375 -1.921875 L 3 -5.390625 L 4.03125 -5.390625 Z M 4.03125 0 "/></g></g></g><g fill="#ffffff" fill-opacity="1"><g transform="translate(142.218578, 270.511231)"><g><path d="M 4.25 -2.296875 C 4.25 -1.953125 4.203125 -1.632812 4.109375 -1.34375 C 4.015625 -1.050781 3.878906 -0.800781 3.703125 -0.59375 C 3.535156 -0.382812 3.328125 -0.21875 3.078125 -0.09375 C 2.828125 0.0195312 2.550781 0.078125 2.25 0.078125 C 1.9375 0.078125 1.65625 0.0195312 1.40625 -0.09375 C 1.164062 -0.21875 0.960938 -0.382812 0.796875 -0.59375 C 0.640625 -0.800781 0.515625 -1.050781 0.421875 -1.34375 C 0.335938 -1.632812 0.296875 -1.953125 0.296875 -2.296875 L 0.296875 -3.078125 C 0.296875 -3.421875 0.335938 -3.738281 0.421875 -4.03125 C 0.515625 -4.320312 0.640625 -4.570312 0.796875 -4.78125 C 0.960938 -5 1.164062 -5.164062 1.40625 -5.28125 C 1.644531 -5.40625 1.921875 -5.46875 2.234375 -5.46875 C 2.546875 -5.46875 2.828125 -5.40625 3.078125 -5.28125 C 3.328125 -5.164062 3.535156 -5 3.703125 -4.78125 C 3.878906 -4.570312 4.015625 -4.320312 4.109375 -4.03125 C 4.203125 -3.738281 4.25 -3.421875 4.25 -3.078125 Z M 3.1875 -3.09375 C 3.1875 -3.3125 3.164062 -3.507812 3.125 -3.6875 C 3.09375 -3.875 3.039062 -4.035156 2.96875 -4.171875 C 2.894531 -4.304688 2.796875 -4.410156 2.671875 -4.484375 C 2.554688 -4.554688 2.410156 -4.59375 2.234375 -4.59375 C 2.066406 -4.59375 1.925781 -4.554688 1.8125 -4.484375 C 1.695312 -4.410156 1.601562 -4.304688 1.53125 -4.171875 C 1.46875 -4.035156 1.421875 -3.875 1.390625 -3.6875 C 1.359375 -3.507812 1.34375 -3.3125 1.34375 -3.09375 L 1.34375 -2.296875 C 1.34375 -2.078125 1.359375 -1.875 1.390625 -1.6875 C 1.421875 -1.507812 1.46875 -1.351562 1.53125 -1.21875 C 1.601562 -1.082031 1.695312 -0.972656 1.8125 -0.890625 C 1.925781 -0.816406 2.070312 -0.78125 2.25 -0.78125 C 2.414062 -0.78125 2.554688 -0.816406 2.671875 -0.890625 C 2.796875 -0.972656 2.894531 -1.078125 2.96875 -1.203125 C 3.039062 -1.335938 3.09375 -1.5 3.125 -1.6875 C 3.164062 -1.875 3.1875 -2.078125 3.1875 -2.296875 Z M 3.1875 -3.09375 "/></g></g></g><g fill="#ffffff" fill-opacity="1"><g transform="translate(150.956131, 270.511231)"><g><path d="M 4.4375 -4.546875 L 2.78125 -4.546875 L 2.78125 0 L 1.734375 0 L 1.734375 -4.546875 L 0.09375 -4.546875 L 0.09375 -5.390625 L 4.4375 -5.390625 Z M 4.4375 -4.546875 "/></g></g></g><g fill="#ffffff" fill-opacity="1"><g transform="translate(159.693684, 270.511231)"><g><path d="M 2.3125 -2.015625 L 1.53125 -2.015625 L 1.53125 0 L 0.484375 0 L 0.484375 -5.390625 L 2.296875 -5.390625 C 2.585938 -5.390625 2.851562 -5.351562 3.09375 -5.28125 C 3.34375 -5.207031 3.550781 -5.101562 3.71875 -4.96875 C 3.894531 -4.832031 4.023438 -4.660156 4.109375 -4.453125 C 4.203125 -4.253906 4.25 -4.023438 4.25 -3.765625 C 4.25 -3.566406 4.226562 -3.390625 4.1875 -3.234375 C 4.144531 -3.085938 4.078125 -2.953125 3.984375 -2.828125 C 3.898438 -2.703125 3.796875 -2.59375 3.671875 -2.5 C 3.554688 -2.414062 3.425781 -2.335938 3.28125 -2.265625 L 4.4375 -0.046875 L 4.4375 0 L 3.328125 0 Z M 1.53125 -2.859375 L 2.296875 -2.859375 C 2.585938 -2.859375 2.8125 -2.929688 2.96875 -3.078125 C 3.132812 -3.222656 3.21875 -3.425781 3.21875 -3.6875 C 3.21875 -3.957031 3.140625 -4.164062 2.984375 -4.3125 C 2.828125 -4.46875 2.597656 -4.546875 2.296875 -4.546875 L 1.53125 -4.546875 Z M 1.53125 -2.859375 "/></g></g></g><g fill="#ffffff" fill-opacity="1"><g transform="translate(168.431235, 270.511231)"><g><path d="M 3.796875 -2.359375 L 1.59375 -2.359375 L 1.59375 -0.84375 L 4.171875 -0.84375 L 4.171875 0 L 0.546875 0 L 0.546875 -5.390625 L 4.15625 -5.390625 L 4.15625 -4.546875 L 1.59375 -4.546875 L 1.59375 -3.1875 L 3.796875 -3.1875 Z M 3.796875 -2.359375 "/></g></g></g><g fill="#ffffff" fill-opacity="1"><g transform="translate(177.168787, 270.511231)"><g><path d="M 1.59375 -1.96875 L 1.59375 0 L 0.546875 0 L 0.546875 -5.390625 L 2.390625 -5.390625 C 2.679688 -5.390625 2.945312 -5.34375 3.1875 -5.25 C 3.425781 -5.164062 3.628906 -5.046875 3.796875 -4.890625 C 3.960938 -4.742188 4.085938 -4.566406 4.171875 -4.359375 C 4.265625 -4.148438 4.3125 -3.914062 4.3125 -3.65625 C 4.3125 -3.414062 4.265625 -3.191406 4.171875 -2.984375 C 4.085938 -2.773438 3.960938 -2.597656 3.796875 -2.453125 C 3.628906 -2.304688 3.425781 -2.1875 3.1875 -2.09375 C 2.945312 -2.007812 2.679688 -1.96875 2.390625 -1.96875 Z M 1.59375 -2.8125 L 2.390625 -2.8125 C 2.535156 -2.8125 2.660156 -2.832031 2.765625 -2.875 C 2.878906 -2.925781 2.972656 -2.988281 3.046875 -3.0625 C 3.117188 -3.144531 3.171875 -3.234375 3.203125 -3.328125 C 3.242188 -3.429688 3.265625 -3.535156 3.265625 -3.640625 C 3.265625 -3.765625 3.242188 -3.878906 3.203125 -3.984375 C 3.171875 -4.097656 3.117188 -4.195312 3.046875 -4.28125 C 2.972656 -4.363281 2.878906 -4.425781 2.765625 -4.46875 C 2.660156 -4.519531 2.535156 -4.546875 2.390625 -4.546875 L 1.59375 -4.546875 Z M 1.59375 -2.8125 "/></g></g></g><g fill="#ffffff" fill-opacity="1"><g transform="translate(185.906341, 270.511231)"><g><path d="M 2.3125 -2.015625 L 1.53125 -2.015625 L 1.53125 0 L 0.484375 0 L 0.484375 -5.390625 L 2.296875 -5.390625 C 2.585938 -5.390625 2.851562 -5.351562 3.09375 -5.28125 C 3.34375 -5.207031 3.550781 -5.101562 3.71875 -4.96875 C 3.894531 -4.832031 4.023438 -4.660156 4.109375 -4.453125 C 4.203125 -4.253906 4.25 -4.023438 4.25 -3.765625 C 4.25 -3.566406 4.226562 -3.390625 4.1875 -3.234375 C 4.144531 -3.085938 4.078125 -2.953125 3.984375 -2.828125 C 3.898438 -2.703125 3.796875 -2.59375 3.671875 -2.5 C 3.554688 -2.414062 3.425781 -2.335938 3.28125 -2.265625 L 4.4375 -0.046875 L 4.4375 0 L 3.328125 0 Z M 1.53125 -2.859375 L 2.296875 -2.859375 C 2.585938 -2.859375 2.8125 -2.929688 2.96875 -3.078125 C 3.132812 -3.222656 3.21875 -3.425781 3.21875 -3.6875 C 3.21875 -3.957031 3.140625 -4.164062 2.984375 -4.3125 C 2.828125 -4.46875 2.597656 -4.546875 2.296875 -4.546875 L 1.53125 -4.546875 Z M 1.53125 -2.859375 "/></g></g></g><g fill="#ffffff" fill-opacity="1"><g transform="translate(194.643894, 270.511231)"><g><path d="M 0.71875 -5.390625 L 3.828125 -5.390625 L 3.828125 -4.546875 L 2.78125 -4.546875 L 2.78125 -0.84375 L 3.828125 -0.84375 L 3.828125 0 L 0.71875 0 L 0.71875 -0.84375 L 1.734375 -0.84375 L 1.734375 -4.546875 L 0.71875 -4.546875 Z M 0.71875 -5.390625 "/></g></g></g><g fill="#ffffff" fill-opacity="1"><g transform="translate(203.381448, 270.511231)"><g><path d="M 4.25 -2.296875 C 4.25 -1.953125 4.203125 -1.632812 4.109375 -1.34375 C 4.015625 -1.050781 3.878906 -0.800781 3.703125 -0.59375 C 3.535156 -0.382812 3.328125 -0.21875 3.078125 -0.09375 C 2.828125 0.0195312 2.550781 0.078125 2.25 0.078125 C 1.9375 0.078125 1.65625 0.0195312 1.40625 -0.09375 C 1.164062 -0.21875 0.960938 -0.382812 0.796875 -0.59375 C 0.640625 -0.800781 0.515625 -1.050781 0.421875 -1.34375 C 0.335938 -1.632812 0.296875 -1.953125 0.296875 -2.296875 L 0.296875 -3.078125 C 0.296875 -3.421875 0.335938 -3.738281 0.421875 -4.03125 C 0.515625 -4.320312 0.640625 -4.570312 0.796875 -4.78125 C 0.960938 -5 1.164062 -5.164062 1.40625 -5.28125 C 1.644531 -5.40625 1.921875 -5.46875 2.234375 -5.46875 C 2.546875 -5.46875 2.828125 -5.40625 3.078125 -5.28125 C 3.328125 -5.164062 3.535156 -5 3.703125 -4.78125 C 3.878906 -4.570312 4.015625 -4.320312 4.109375 -4.03125 C 4.203125 -3.738281 4.25 -3.421875 4.25 -3.078125 Z M 3.1875 -3.09375 C 3.1875 -3.3125 3.164062 -3.507812 3.125 -3.6875 C 3.09375 -3.875 3.039062 -4.035156 2.96875 -4.171875 C 2.894531 -4.304688 2.796875 -4.410156 2.671875 -4.484375 C 2.554688 -4.554688 2.410156 -4.59375 2.234375 -4.59375 C 2.066406 -4.59375 1.925781 -4.554688 1.8125 -4.484375 C 1.695312 -4.410156 1.601562 -4.304688 1.53125 -4.171875 C 1.46875 -4.035156 1.421875 -3.875 1.390625 -3.6875 C 1.359375 -3.507812 1.34375 -3.3125 1.34375 -3.09375 L 1.34375 -2.296875 C 1.34375 -2.078125 1.359375 -1.875 1.390625 -1.6875 C 1.421875 -1.507812 1.46875 -1.351562 1.53125 -1.21875 C 1.601562 -1.082031 1.695312 -0.972656 1.8125 -0.890625 C 1.925781 -0.816406 2.070312 -0.78125 2.25 -0.78125 C 2.414062 -0.78125 2.554688 -0.816406 2.671875 -0.890625 C 2.796875 -0.972656 2.894531 -1.078125 2.96875 -1.203125 C 3.039062 -1.335938 3.09375 -1.5 3.125 -1.6875 C 3.164062 -1.875 3.1875 -2.078125 3.1875 -2.296875 Z M 3.1875 -3.09375 "/></g></g></g><g fill="#ffffff" fill-opacity="1"><g transform="translate(212.118998, 270.511231)"><g><path d="M 2.3125 -2.015625 L 1.53125 -2.015625 L 1.53125 0 L 0.484375 0 L 0.484375 -5.390625 L 2.296875 -5.390625 C 2.585938 -5.390625 2.851562 -5.351562 3.09375 -5.28125 C 3.34375 -5.207031 3.550781 -5.101562 3.71875 -4.96875 C 3.894531 -4.832031 4.023438 -4.660156 4.109375 -4.453125 C 4.203125 -4.253906 4.25 -4.023438 4.25 -3.765625 C 4.25 -3.566406 4.226562 -3.390625 4.1875 -3.234375 C 4.144531 -3.085938 4.078125 -2.953125 3.984375 -2.828125 C 3.898438 -2.703125 3.796875 -2.59375 3.671875 -2.5 C 3.554688 -2.414062 3.425781 -2.335938 3.28125 -2.265625 L 4.4375 -0.046875 L 4.4375 0 L 3.328125 0 Z M 1.53125 -2.859375 L 2.296875 -2.859375 C 2.585938 -2.859375 2.8125 -2.929688 2.96875 -3.078125 C 3.132812 -3.222656 3.21875 -3.425781 3.21875 -3.6875 C 3.21875 -3.957031 3.140625 -4.164062 2.984375 -4.3125 C 2.828125 -4.46875 2.597656 -4.546875 2.296875 -4.546875 L 1.53125 -4.546875 Z M 1.53125 -2.859375 "/></g></g></g><g fill="#ffffff" fill-opacity="1"><g transform="translate(220.856547, 270.511231)"><g><path d="M 0.71875 -5.390625 L 3.828125 -5.390625 L 3.828125 -4.546875 L 2.78125 -4.546875 L 2.78125 -0.84375 L 3.828125 -0.84375 L 3.828125 0 L 0.71875 0 L 0.71875 -0.84375 L 1.734375 -0.84375 L 1.734375 -4.546875 L 0.71875 -4.546875 Z M 0.71875 -5.390625 "/></g></g></g><g fill="#ffffff" fill-opacity="1"><g transform="translate(229.594097, 270.511231)"><g><path d="M 4.4375 -4.546875 L 2.78125 -4.546875 L 2.78125 0 L 1.734375 0 L 1.734375 -4.546875 L 0.09375 -4.546875 L 0.09375 -5.390625 L 4.4375 -5.390625 Z M 4.4375 -4.546875 "/></g></g></g><g fill="#ffffff" fill-opacity="1"><g transform="translate(238.331646, 270.511231)"><g><path d="M 3.796875 -2.359375 L 1.59375 -2.359375 L 1.59375 -0.84375 L 4.171875 -0.84375 L 4.171875 0 L 0.546875 0 L 0.546875 -5.390625 L 4.15625 -5.390625 L 4.15625 -4.546875 L 1.59375 -4.546875 L 1.59375 -3.1875 L 3.796875 -3.1875 Z M 2.640625 -6.71875 L 3.765625 -6.71875 L 2.75 -5.6875 L 1.9375 -5.6875 Z M 2.640625 -6.71875 "/></g></g></g><g fill="#ffffff" fill-opacity="1"><g transform="translate(247.069499, 270.511231)"><g/></g></g></svg>